<svg width="19" height="18" viewBox="0 0 19 18" fill="none" xmlns="http://www.w3.org/2000/svg">
<path d="M9.5 1.6207C12.0383 1.6207 12.3389 1.63125 13.3371 1.67344C14.2648 1.71211 14.7658 1.85977 15.0998 1.98281C15.5414 2.14453 15.8605 2.34141 16.1908 2.6543C16.5248 2.9707 16.7289 3.26953 16.8996 3.68789C17.0295 4.0043 17.1854 4.48242 17.2262 5.35781C17.2707 6.30703 17.2818 6.5918 17.2818 8.99297C17.2818 11.3977 17.2707 11.6824 17.2262 12.6281C17.1854 13.507 17.0295 13.9816 16.8996 14.298C16.7289 14.7164 16.5211 15.0188 16.1908 15.3316C15.8568 15.648 15.5414 15.8414 15.0998 16.0031C14.7658 16.1262 14.2611 16.2738 13.3371 16.3125C12.3352 16.3547 12.0346 16.3652 9.5 16.3652C6.96172 16.3652 6.66113 16.3547 5.66289 16.3125C4.73516 16.2738 4.23418 16.1262 3.9002 16.0031C3.45859 15.8414 3.13945 15.6445 2.80918 15.3316C2.4752 15.0152 2.27109 14.7164 2.10039 14.298C1.97051 13.9816 1.81465 13.5035 1.77383 12.6281C1.7293 11.6789 1.71816 11.3941 1.71816 8.99297C1.71816 6.58828 1.7293 6.30352 1.77383 5.35781C1.81465 4.47891 1.97051 4.0043 2.10039 3.68789C2.27109 3.26953 2.47891 2.96719 2.80918 2.6543C3.14316 2.33789 3.45859 2.14453 3.9002 1.98281C4.23418 1.85977 4.73887 1.71211 5.66289 1.67344C6.66113 1.63125 6.96172 1.6207 9.5 1.6207ZM9.5 0C6.9209 0 6.59805 0.0105469 5.58496 0.0527344C4.57559 0.0949219 3.88164 0.249609 3.28047 0.471094C2.65332 0.703125 2.12266 1.00898 1.5957 1.51172C1.06504 2.01094 0.742188 2.51367 0.497266 3.1043C0.263477 3.67734 0.100195 4.33125 0.0556641 5.2875C0.0111328 6.25078 0 6.55664 0 9C0 11.4434 0.0111328 11.7492 0.0556641 12.709C0.100195 13.6652 0.263477 14.3227 0.497266 14.8922C0.742188 15.4863 1.06504 15.9891 1.5957 16.4883C2.12266 16.9875 2.65332 17.2969 3.27676 17.5254C3.88164 17.7469 4.57187 17.9016 5.58125 17.9438C6.59434 17.9859 6.91719 17.9965 9.49629 17.9965C12.0754 17.9965 12.3982 17.9859 13.4113 17.9438C14.4207 17.9016 15.1146 17.7469 15.7158 17.5254C16.3393 17.2969 16.8699 16.9875 17.3969 16.4883C17.9238 15.9891 18.2504 15.4863 18.4916 14.8957C18.7254 14.3227 18.8887 13.6688 18.9332 12.7125C18.9777 11.7527 18.9889 11.4469 18.9889 9.00352C18.9889 6.56016 18.9777 6.2543 18.9332 5.29453C18.8887 4.33828 18.7254 3.68086 18.4916 3.11133C18.2578 2.51367 17.935 2.01094 17.4043 1.51172C16.8773 1.0125 16.3467 0.703125 15.7232 0.474609C15.1184 0.253125 14.4281 0.0984375 13.4187 0.05625C12.402 0.0105469 12.0791 0 9.5 0Z" fill="#552473"/>
<path d="M9.5 4.37695C6.80586 4.37695 4.62012 6.44766 4.62012 9C4.62012 11.5523 6.80586 13.623 9.5 13.623C12.1941 13.623 14.3799 11.5523 14.3799 9C14.3799 6.44766 12.1941 4.37695 9.5 4.37695ZM9.5 11.9988C7.75215 11.9988 6.33457 10.6559 6.33457 9C6.33457 7.34414 7.75215 6.00117 9.5 6.00117C11.2479 6.00117 12.6654 7.34414 12.6654 9C12.6654 10.6559 11.2479 11.9988 9.5 11.9988Z" fill="#552473"/>
<path d="M15.7121 4.19404C15.7121 4.7917 15.2 5.27334 14.5729 5.27334C13.942 5.27334 13.4336 4.78819 13.4336 4.19404C13.4336 3.59639 13.9457 3.11475 14.5729 3.11475C15.2 3.11475 15.7121 3.5999 15.7121 4.19404Z" fill="#552473"/>
</svg>
